<svg xmlns="http://www.w3.org/2000/svg" width="900" height="470" viewBox="0 0 900 470">
<style>text{font-family:Arial,'Microsoft YaHei',sans-serif;fill:#172033}.small{font-size:12px}.label{font-size:14px}.title{font-size:20px;font-weight:700}.axis{stroke:#8791a5;stroke-width:1}.grid{stroke:#dfe3eb;stroke-width:1}</style>
<rect width="900" height="470" fill="white"/>
<text x="30" y="31" class="title">Deletion effect by Control correctness frequency</text>
<text x="30" y="52" class="small">Full cohort: 600 steps / 2,400 pairs. Mechanical outcome boundaries apply at 0/4 and 4/4.</text>
<line x1="381.53846153846155" y1="50" x2="381.53846153846155" y2="415" stroke="#4c5567" stroke-width="2"/>
<line x1="180.0" y1="50" x2="180.0" y2="415" class="grid"/>
<text x="180.0" y="452" text-anchor="middle" class="small">-20</text>
<line x1="273.57142857142856" y1="50" x2="273.57142857142856" y2="415" class="grid"/>
<text x="273.57142857142856" y="452" text-anchor="middle" class="small">-11</text>
<line x1="367.1428571428571" y1="50" x2="367.1428571428571" y2="415" class="grid"/>
<text x="367.1428571428571" y="452" text-anchor="middle" class="small">-1</text>
<line x1="460.7142857142857" y1="50" x2="460.7142857142857" y2="415" class="grid"/>
<text x="460.7142857142857" y="452" text-anchor="middle" class="small">+8</text>
<line x1="554.2857142857142" y1="50" x2="554.2857142857142" y2="415" class="grid"/>
<text x="554.2857142857142" y="452" text-anchor="middle" class="small">+17</text>
<line x1="647.8571428571429" y1="50" x2="647.8571428571429" y2="415" class="grid"/>
<text x="647.8571428571429" y="452" text-anchor="middle" class="small">+26</text>
<line x1="741.4285714285714" y1="50" x2="741.4285714285714" y2="415" class="grid"/>
<text x="741.4285714285714" y="452" text-anchor="middle" class="small">+36</text>
<line x1="835.0" y1="50" x2="835.0" y2="415" class="grid"/>
<text x="835.0" y="452" text-anchor="middle" class="small">+45</text>
<text x="162" y="70.0" text-anchor="end" class="label">0/4 (n=224)</text>
<line x1="658.8725153846153" y1="65.0" x2="776.5306692307693" y2="65.0" stroke="#3569b8" stroke-width="3"/>
<circle cx="717.810423076923" cy="65.0" r="6" fill="#3569b8"/>
<text x="162" y="157.5" text-anchor="end" class="label">1/4 (n=23)</text>
<line x1="368.9423076923077" y1="152.5" x2="706.9394384615385" y2="152.5" stroke="#3569b8" stroke-width="3"/>
<circle cx="534.8830307692308" cy="152.5" r="6" fill="#3569b8"/>
<text x="162" y="245.0" text-anchor="end" class="label">2/4 (n=27)</text>
<line x1="291.5475076923077" y1="240.0" x2="646.0738153846154" y2="240.0" stroke="#3569b8" stroke-width="3"/>
<circle cx="474.8437153846154" cy="240.0" r="6" fill="#3569b8"/>
<text x="162" y="332.5" text-anchor="end" class="label">3/4 (n=28)</text>
<line x1="173.04994615384618" y1="327.5" x2="465.5124846153846" y2="327.5" stroke="#3569b8" stroke-width="3"/>
<circle cx="327.5553769230769" cy="327.5" r="6" fill="#3569b8"/>
<text x="162" y="420.0" text-anchor="end" class="label">4/4 (n=298)</text>
<line x1="225.4166923076923" y1="415.0" x2="291.80245384615387" y2="415.0" stroke="#3569b8" stroke-width="3"/>
<circle cx="259.80419230769235" cy="415.0" r="6" fill="#3569b8"/>
</svg>
